<?xml version="1.0" encoding="UTF-8"?>
<svg version="1.1" xmlns="http://www.w3.org/2000/svg" width="225" height="225">
<path d="M0 0 C74.25 0 148.5 0 225 0 C225 74.25 225 148.5 225 225 C150.75 225 76.5 225 0 225 C0 150.75 0 76.5 0 0 Z " fill="#FEFEFE" transform="translate(0,0)"/>
<path d="M0 0 C3.68069887 1.53643852 5.98775204 3.78150945 8.75 6.625 C9.54921875 7.44226563 10.3484375 8.25953125 11.171875 9.1015625 C11.77515625 9.72804688 12.3784375 10.35453125 13 11 C10.21854393 15.63576011 6.95232802 19.15609687 3.0859375 22.921875 C-1.08695062 27.07913433 -4.84201289 31.60538598 -8.60864258 36.12841797 C-9.39779053 37.07604004 -10.18693848 38.02366211 -11 39 C-10.32046139 39.00238835 -9.64092278 39.00477671 -8.94079208 39.00723743 C7.63709424 39.0665192 24.21481858 39.14215283 40.79254532 39.23571491 C48.80960012 39.28057258 56.8266115 39.32001002 64.84375 39.34643555 C71.83609026 39.36949723 78.82829192 39.40298551 85.82052207 39.44870156 C89.5186971 39.47252433 93.2167358 39.49132443 96.91498566 39.49761391 C101.05582515 39.5048523 105.19619369 39.53538138 109.33691406 39.56762695 C111.15169754 39.56547432 111.15169754 39.56547432 113.00314331 39.5632782 C125.72436688 39.70270267 136.11936626 41.96560881 145.74609375 50.55859375 C153.98813935 59.12949903 154.60253145 70.15972435 154.53125 81.4609375 C154.53395213 82.82329585 154.53784051 84.18565231 154.54284668 85.54800415 C154.54869607 88.38033712 154.54032066 91.2121605 154.52148438 94.04443359 C154.49856442 97.66599169 154.51192692 101.28637221 154.53577423 104.90788841 C154.55024529 107.71156665 154.54562275 110.51496638 154.53526306 113.31865311 C154.53132141 115.30003892 154.54340606 117.28143581 154.55578613 119.26278687 C154.53687317 121.0708934 154.53687317 121.0708934 154.51757812 122.91552734 C154.51439575 123.97266937 154.51121338 125.0298114 154.50793457 126.11898804 C153.87438526 129.71248858 152.50081901 131.39214162 150 134 C147.11138291 135.44430855 145.20352299 135.37688506 142 135 C139.39809116 133.35202893 138.42476821 132.63515712 137 130 C136.26090857 125.53740045 136.35092589 121.11174311 136.3984375 116.59765625 C136.3862044 114.5953601 136.37395593 112.59306391 136.3608036 110.59077358 C136.34827809 107.79132629 136.35792982 104.99213185 136.36798096 102.19268799 C136.3841088 97.29809898 136.38133659 92.40368034 136.35440063 87.50914001 C136.34230619 84.90594548 136.34498869 82.30263059 136.36410522 79.69947815 C136.36044952 78.51482468 136.35679382 77.3301712 136.35302734 76.10961914 C136.35700531 75.07213028 136.36098328 74.03464142 136.36508179 72.9657135 C135.78153244 68.22529577 134.05420314 64.97311059 130.5625 61.75 C126.33004176 58.85954072 123.65247788 57.74971231 118.4697876 57.75949097 C116.78291588 57.75536697 116.78291588 57.75536697 115.06196594 57.75115967 C113.21806526 57.7619455 113.21806526 57.7619455 111.33691406 57.77294922 C110.03910507 57.77265717 108.74129608 57.77236511 107.40415955 57.77206421 C103.84866924 57.77149044 100.2933139 57.7832486 96.73785496 57.79721212 C93.02094266 57.80971547 89.30402725 57.81088967 85.58709717 57.81326294 C78.55004784 57.81947887 71.51306066 57.83589122 64.47603869 57.85596192 C56.46401522 57.8783174 48.45198878 57.88931346 40.43994188 57.89935279 C23.95992487 57.92025735 7.47997037 57.95543552 -9 58 C-7.11085979 59.73327243 -5.22150527 61.46631027 -3.33203125 63.19921875 C-2.54028503 63.92570618 -2.54028503 63.92570618 -1.73254395 64.66687012 C5.41646074 71.22264199 12.60077015 77.72673991 20 84 C17.36517737 89.26964527 13.20056089 92.97903554 9 97 C5.993182 95.66000502 4.00237391 94.20154709 1.75 91.8125 C-1.27938411 88.61065096 -4.54794042 85.75806271 -7.87255859 82.87133789 C-11.2174181 79.92913591 -14.45014053 76.87191592 -17.6875 73.8125 C-19.0830059 72.49965187 -20.47884425 71.18715703 -21.875 69.875 C-22.56464844 69.22660156 -23.25429688 68.57820313 -23.96484375 67.91015625 C-27.0294142 65.03381278 -30.10444442 62.16901235 -33.1875 59.3125 C-33.7033667 58.83208252 -34.2192334 58.35166504 -34.75073242 57.85668945 C-37.73346597 55.09836219 -40.7977387 52.49975425 -44 50 C-42.57636157 45.28042291 -39.80956955 42.48670338 -36.3125 39.1875 C-32.25637592 35.30750391 -28.469266 31.3096665 -24.80102539 27.05932617 C-21.81232695 23.64199239 -18.6827007 20.35937658 -15.5625 17.0625 C-10.27859717 11.45557236 -5.055642 5.81479592 0 0 Z " fill="#010101" transform="translate(62,12)"/>
<path d="M0 0 C2.60731146 1.65611684 3.58259179 2.35728947 5 5 C5.71522696 9.4419962 5.60106666 13.84249365 5.53125 18.33203125 C5.53623619 20.32732889 5.54125045 22.32262691 5.54788971 24.31791973 C5.55379291 28.52152079 5.515235 32.72494408 5.48455811 36.92840576 C5.46102372 40.38715983 5.44737155 43.84529331 5.4588623 47.30412292 C5.46532039 49.89410286 5.44976846 52.48425699 5.40930176 55.07392883 C5.43011865 62.10964948 5.81512922 67.8254022 11 73 C14.76290013 75.65722012 17.29242206 76.37319127 21.87825012 76.36076355 C23.05469086 76.36488754 24.23113159 76.36901154 25.44322205 76.3732605 C27.36588646 76.35708176 27.36588646 76.35708176 29.32739258 76.34057617 C30.69757061 76.3397295 32.06775 76.34020583 33.43792725 76.34190369 C37.1504424 76.3427635 40.86266605 76.32514016 44.57511353 76.30418181 C48.45750588 76.28541266 52.3399051 76.28366439 56.22233582 76.28010559 C63.57104688 76.27078582 70.91962386 76.24617299 78.26827592 76.21605712 C86.63580744 76.18251098 95.00334541 76.16602657 103.37092745 76.15097082 C120.58070914 76.11962332 137.79030617 76.06461215 155 76 C146.42 67.42 137.84 58.84 129 50 C130.92140868 46.15718264 132.5926816 44.19568073 135.625 41.25 C136.85089844 40.05117187 136.85089844 40.05117187 138.1015625 38.828125 C138.72804687 38.22484375 139.35453125 37.6215625 140 37 C143.28128931 38.4407429 145.49731195 40.22579157 148.05004883 42.7277832 C149.22565117 43.87456291 149.22565117 43.87456291 150.42500305 45.04450989 C151.26057236 45.87157944 152.09614166 46.69864899 152.95703125 47.55078125 C153.81938889 48.40173874 154.68174652 49.25269623 155.57023621 50.12944031 C157.38940202 51.92972572 159.20568464 53.73292857 161.01928711 55.53881836 C163.80545181 58.3055011 166.61219232 61.05014921 169.41992188 63.79492188 C171.18360564 65.54555222 172.94601977 67.2974628 174.70703125 69.05078125 C175.55272171 69.87177811 176.39841217 70.69277496 177.26972961 71.53865051 C178.0377037 72.3126268 178.8056778 73.08660309 179.59692383 73.8840332 C180.27991043 74.55972855 180.96289703 75.23542389 181.6665802 75.93159485 C183 78 183 78 182.85380554 80.59391785 C181.63002424 84.04261689 179.52567346 85.81711122 176.875 88.3125 C172.95942399 92.0274163 169.34741836 95.83267908 165.82080078 99.91870117 C162.20180461 104.05545933 158.38476718 108.01030763 154.60546875 112 C150.29147848 116.57300831 146.10747705 121.24064293 142 126 C138.36696916 124.30413874 136.05450954 122.26199512 133.25 119.375 C132.45078125 118.55773437 131.6515625 117.74046875 130.828125 116.8984375 C130.22484375 116.27195312 129.6215625 115.64546875 129 115 C132.83709603 110.31021596 136.93743415 105.998036 141.234375 101.734375 C141.7897998 101.18120605 142.34522461 100.62803711 142.91748047 100.05810547 C144.27717833 98.70425577 145.63843167 97.35196856 147 96 C146.01299716 95.99918285 146.01299716 95.99918285 145.00605488 95.99834919 C128.94515771 95.9833376 112.8846017 95.9407149 96.82387257 95.86790943 C89.05678525 95.83335591 81.28987363 95.80791664 73.52270508 95.80444336 C66.74747002 95.80138997 59.97254865 95.7807163 53.1974346 95.73947543 C49.61481616 95.71826728 46.03264228 95.70548116 42.44996071 95.71384621 C38.43601618 95.72288627 34.42324213 95.69256102 30.40942383 95.65942383 C29.24056641 95.66804947 28.07170898 95.67667511 26.86743164 95.68556213 C15.5953829 95.53055672 5.18363373 92.34445041 -3.05859375 84.390625 C-8.52317701 77.66160094 -12.08978969 69.70143894 -12.19287109 61.04736328 C-12.20893402 59.82244171 -12.22499695 58.59752014 -12.24154663 57.33547974 C-12.25303282 55.99709773 -12.26364158 54.65870795 -12.2734375 53.3203125 C-12.27876118 52.64528561 -12.28408485 51.97025871 -12.28956985 51.27477646 C-12.31626545 47.70288988 -12.33565311 44.13103785 -12.35009766 40.55908203 C-12.3634447 37.60629348 -12.39131422 34.65419475 -12.43212891 31.70166016 C-12.48146964 28.13195854 -12.50621953 24.56288312 -12.51332474 20.99285507 C-12.5200318 19.63486769 -12.53524018 18.276894 -12.55921555 16.91910172 C-12.75830592 4.96359663 -12.75830592 4.96359663 -9.68603516 1.66748047 C-6.10574114 -0.55515252 -4.14124383 -0.73950783 0 0 Z " fill="#070707" transform="translate(21,87)"/>
<style> 
svg{
    border-radius: 5px;
}
</style>
</svg>